<mxfile host="app.diagrams.net" agent="Mozilla/5.0 (X11; Linux x86_64; rv:109.0) Gecko/20100101 Firefox/115.0" version="24.7.17">
  <diagram name="Page-1" id="rk8rMPUivf8WO_NjOtSi">
    <mxGraphModel dx="1049" dy="570" grid="1" gridSize="10" guides="1" tooltips="1" connect="1" arrows="1" fold="1" page="1" pageScale="1" pageWidth="850" pageHeight="1100" math="0" shadow="0">
      <root>
        <mxCell id="0" />
        <mxCell id="1" parent="0" />
        <mxCell id="xfyd0tg26X2Eod8Ik0Pi-79" value="" style="rounded=1;whiteSpace=wrap;html=1;fillColor=#f8cecc;strokeColor=#b85450;strokeWidth=2;arcSize=5;fillStyle=auto;dashed=1;dashPattern=8 8;" vertex="1" parent="1">
          <mxGeometry x="293" y="464" width="37" height="295" as="geometry" />
        </mxCell>
        <mxCell id="xfyd0tg26X2Eod8Ik0Pi-76" value="" style="rounded=1;whiteSpace=wrap;html=1;fillColor=none;strokeColor=#CCCCCC;strokeWidth=1;arcSize=5;fontColor=#333333;fillStyle=auto;dashed=1;dashPattern=8 8;" vertex="1" parent="1">
          <mxGeometry x="283" y="465" width="147" height="295" as="geometry" />
        </mxCell>
        <mxCell id="xfyd0tg26X2Eod8Ik0Pi-74" value="" style="rounded=1;whiteSpace=wrap;html=1;fillColor=none;strokeColor=#CCCCCC;strokeWidth=1;arcSize=5;fontColor=#333333;fillStyle=auto;dashed=1;dashPattern=8 8;" vertex="1" parent="1">
          <mxGeometry x="180" y="465" width="90" height="295" as="geometry" />
        </mxCell>
        <mxCell id="2EXVOlUp1VwmMUYhzBQS-44" value="&lt;div&gt;&lt;font face=&quot;Times New Roman&quot; color=&quot;#666666&quot;&gt;Encrypted&lt;br&gt;&lt;/font&gt;&lt;/div&gt;&lt;div&gt;&lt;font face=&quot;ZngBr3ptDAf2Eksl-sQc&quot; color=&quot;#666666&quot;&gt;&lt;br&gt;&lt;/font&gt;&lt;/div&gt;&lt;div&gt;&lt;font face=&quot;ZngBr3ptDAf2Eksl-sQc&quot; color=&quot;#666666&quot;&gt;&lt;br&gt;&lt;/font&gt;&lt;/div&gt;&lt;div&gt;&lt;font face=&quot;ZngBr3ptDAf2Eksl-sQc&quot; color=&quot;#666666&quot;&gt;&lt;br&gt;&lt;/font&gt;&lt;/div&gt;&lt;div&gt;&lt;font face=&quot;ZngBr3ptDAf2Eksl-sQc&quot; color=&quot;#666666&quot;&gt;&lt;br&gt;&lt;/font&gt;&lt;/div&gt;&lt;div&gt;&lt;font face=&quot;ZngBr3ptDAf2Eksl-sQc&quot; color=&quot;#666666&quot;&gt;&lt;br&gt;&lt;/font&gt;&lt;/div&gt;&lt;div&gt;&lt;font face=&quot;ZngBr3ptDAf2Eksl-sQc&quot; color=&quot;#666666&quot;&gt;&lt;br&gt;&lt;/font&gt;&lt;/div&gt;&lt;div&gt;&lt;font face=&quot;ZngBr3ptDAf2Eksl-sQc&quot; color=&quot;#666666&quot;&gt;&lt;br&gt;&lt;/font&gt;&lt;/div&gt;&lt;div&gt;&lt;font face=&quot;ZngBr3ptDAf2Eksl-sQc&quot; color=&quot;#666666&quot;&gt;&lt;br&gt;&lt;/font&gt;&lt;/div&gt;&lt;div&gt;&lt;font face=&quot;ZngBr3ptDAf2Eksl-sQc&quot; color=&quot;#666666&quot;&gt;&lt;br&gt;&lt;/font&gt;&lt;/div&gt;&lt;div&gt;&lt;font face=&quot;ZngBr3ptDAf2Eksl-sQc&quot; color=&quot;#666666&quot;&gt;&lt;br&gt;&lt;/font&gt;&lt;/div&gt;&lt;div&gt;&lt;font face=&quot;ZngBr3ptDAf2Eksl-sQc&quot; color=&quot;#666666&quot;&gt;&lt;br&gt;&lt;/font&gt;&lt;/div&gt;&lt;div&gt;&lt;font face=&quot;ZngBr3ptDAf2Eksl-sQc&quot; color=&quot;#666666&quot;&gt;&lt;br&gt;&lt;/font&gt;&lt;/div&gt;&lt;div&gt;&lt;font face=&quot;ZngBr3ptDAf2Eksl-sQc&quot; color=&quot;#666666&quot;&gt;&lt;br&gt;&lt;/font&gt;&lt;/div&gt;&lt;div&gt;&lt;font face=&quot;ZngBr3ptDAf2Eksl-sQc&quot; color=&quot;#666666&quot;&gt;&lt;br&gt;&lt;/font&gt;&lt;/div&gt;" style="rounded=1;whiteSpace=wrap;html=1;fillColor=#f8cecc;strokeColor=#b85450;strokeWidth=2;arcSize=5;" parent="1" vertex="1">
          <mxGeometry x="120" y="165" width="140" height="245" as="geometry" />
        </mxCell>
        <mxCell id="2EXVOlUp1VwmMUYhzBQS-43" value="&lt;div&gt;&lt;font face=&quot;Times New Roman&quot; color=&quot;#666666&quot;&gt;Plaintext&lt;br&gt;&lt;/font&gt;&lt;/div&gt;&lt;div&gt;&lt;font face=&quot;ZngBr3ptDAf2Eksl-sQc&quot; color=&quot;#666666&quot;&gt;&lt;br&gt;&lt;/font&gt;&lt;/div&gt;&lt;div&gt;&lt;font face=&quot;ZngBr3ptDAf2Eksl-sQc&quot; color=&quot;#666666&quot;&gt;&lt;br&gt;&lt;/font&gt;&lt;/div&gt;&lt;div&gt;&lt;font face=&quot;ZngBr3ptDAf2Eksl-sQc&quot; color=&quot;#666666&quot;&gt;&lt;br&gt;&lt;/font&gt;&lt;/div&gt;&lt;div&gt;&lt;font face=&quot;ZngBr3ptDAf2Eksl-sQc&quot; color=&quot;#666666&quot;&gt;&lt;br&gt;&lt;/font&gt;&lt;/div&gt;&lt;div&gt;&lt;font face=&quot;ZngBr3ptDAf2Eksl-sQc&quot; color=&quot;#666666&quot;&gt;&lt;br&gt;&lt;/font&gt;&lt;/div&gt;&lt;div&gt;&lt;font face=&quot;ZngBr3ptDAf2Eksl-sQc&quot; color=&quot;#666666&quot;&gt;&lt;br&gt;&lt;/font&gt;&lt;/div&gt;&lt;div&gt;&lt;font face=&quot;ZngBr3ptDAf2Eksl-sQc&quot; color=&quot;#666666&quot;&gt;&lt;br&gt;&lt;/font&gt;&lt;/div&gt;&lt;div&gt;&lt;font face=&quot;ZngBr3ptDAf2Eksl-sQc&quot; color=&quot;#666666&quot;&gt;&lt;br&gt;&lt;/font&gt;&lt;/div&gt;&lt;div&gt;&lt;font face=&quot;ZngBr3ptDAf2Eksl-sQc&quot; color=&quot;#666666&quot;&gt;&lt;br&gt;&lt;/font&gt;&lt;/div&gt;&lt;div&gt;&lt;font face=&quot;ZngBr3ptDAf2Eksl-sQc&quot; color=&quot;#666666&quot;&gt;&lt;br&gt;&lt;/font&gt;&lt;/div&gt;&lt;div&gt;&lt;font face=&quot;ZngBr3ptDAf2Eksl-sQc&quot; color=&quot;#666666&quot;&gt;&lt;br&gt;&lt;/font&gt;&lt;/div&gt;&lt;div&gt;&lt;font face=&quot;ZngBr3ptDAf2Eksl-sQc&quot; color=&quot;#666666&quot;&gt;&lt;br&gt;&lt;/font&gt;&lt;/div&gt;&lt;div&gt;&lt;font face=&quot;ZngBr3ptDAf2Eksl-sQc&quot; color=&quot;#666666&quot;&gt;&lt;br&gt;&lt;/font&gt;&lt;/div&gt;&lt;div&gt;&lt;font face=&quot;ZngBr3ptDAf2Eksl-sQc&quot; color=&quot;#666666&quot;&gt;&lt;br&gt;&lt;/font&gt;&lt;/div&gt;" style="rounded=1;whiteSpace=wrap;html=1;fillColor=#d5e8d4;strokeColor=#82b366;strokeWidth=2;arcSize=5;" parent="1" vertex="1">
          <mxGeometry x="320" y="165" width="120" height="245" as="geometry" />
        </mxCell>
        <mxCell id="2EXVOlUp1VwmMUYhzBQS-41" value="&lt;div&gt;&lt;font face=&quot;Times New Roman&quot; color=&quot;#666666&quot;&gt;FEIP Decryption&lt;br&gt;&lt;/font&gt;&lt;/div&gt;&lt;div&gt;&lt;font face=&quot;ZngBr3ptDAf2Eksl-sQc&quot; color=&quot;#666666&quot;&gt;&lt;br&gt;&lt;/font&gt;&lt;/div&gt;&lt;div&gt;&lt;font face=&quot;ZngBr3ptDAf2Eksl-sQc&quot; color=&quot;#666666&quot;&gt;&lt;br&gt;&lt;/font&gt;&lt;/div&gt;&lt;div&gt;&lt;font face=&quot;ZngBr3ptDAf2Eksl-sQc&quot; color=&quot;#666666&quot;&gt;&lt;br&gt;&lt;/font&gt;&lt;/div&gt;&lt;div&gt;&lt;font face=&quot;ZngBr3ptDAf2Eksl-sQc&quot; color=&quot;#666666&quot;&gt;&lt;br&gt;&lt;/font&gt;&lt;/div&gt;&lt;div&gt;&lt;font face=&quot;ZngBr3ptDAf2Eksl-sQc&quot; color=&quot;#666666&quot;&gt;&lt;br&gt;&lt;/font&gt;&lt;/div&gt;&lt;div&gt;&lt;font face=&quot;ZngBr3ptDAf2Eksl-sQc&quot; color=&quot;#666666&quot;&gt;&lt;br&gt;&lt;/font&gt;&lt;/div&gt;&lt;div&gt;&lt;font face=&quot;ZngBr3ptDAf2Eksl-sQc&quot; color=&quot;#666666&quot;&gt;&lt;br&gt;&lt;/font&gt;&lt;/div&gt;&lt;div&gt;&lt;font face=&quot;ZngBr3ptDAf2Eksl-sQc&quot; color=&quot;#666666&quot;&gt;&lt;br&gt;&lt;/font&gt;&lt;/div&gt;&lt;div&gt;&lt;font face=&quot;ZngBr3ptDAf2Eksl-sQc&quot; color=&quot;#666666&quot;&gt;&lt;br&gt;&lt;/font&gt;&lt;/div&gt;&lt;div&gt;&lt;font face=&quot;ZngBr3ptDAf2Eksl-sQc&quot; color=&quot;#666666&quot;&gt;&lt;br&gt;&lt;/font&gt;&lt;/div&gt;&lt;div&gt;&lt;font face=&quot;ZngBr3ptDAf2Eksl-sQc&quot; color=&quot;#666666&quot;&gt;&lt;br&gt;&lt;/font&gt;&lt;/div&gt;&lt;div&gt;&lt;font face=&quot;ZngBr3ptDAf2Eksl-sQc&quot; color=&quot;#666666&quot;&gt;&lt;br&gt;&lt;/font&gt;&lt;/div&gt;&lt;div&gt;&lt;font face=&quot;ZngBr3ptDAf2Eksl-sQc&quot; color=&quot;#666666&quot;&gt;&lt;br&gt;&lt;/font&gt;&lt;/div&gt;&lt;div&gt;&lt;font face=&quot;ZngBr3ptDAf2Eksl-sQc&quot; color=&quot;#666666&quot;&gt;&lt;br&gt;&lt;/font&gt;&lt;/div&gt;" style="rounded=1;whiteSpace=wrap;html=1;fillColor=#E8F0FC;strokeColor=#6c8ebf;strokeWidth=2;" parent="1" vertex="1">
          <mxGeometry x="260" y="165" width="60" height="245" as="geometry" />
        </mxCell>
        <mxCell id="2EXVOlUp1VwmMUYhzBQS-8" style="rounded=0;orthogonalLoop=1;jettySize=auto;html=1;exitX=1;exitY=1;exitDx=0;exitDy=0;entryX=0;entryY=0.5;entryDx=0;entryDy=0;endArrow=none;endFill=0;fillColor=#f5f5f5;strokeColor=#666666;strokeWidth=2;" parent="1" source="2EXVOlUp1VwmMUYhzBQS-1" target="2EXVOlUp1VwmMUYhzBQS-5" edge="1">
          <mxGeometry relative="1" as="geometry" />
        </mxCell>
        <mxCell id="2EXVOlUp1VwmMUYhzBQS-11" style="rounded=0;orthogonalLoop=1;jettySize=auto;html=1;exitX=1;exitY=1;exitDx=0;exitDy=0;entryX=0;entryY=0.5;entryDx=0;entryDy=0;endArrow=none;endFill=0;fillColor=#f5f5f5;strokeColor=#666666;strokeWidth=2;" parent="1" source="2EXVOlUp1VwmMUYhzBQS-1" target="2EXVOlUp1VwmMUYhzBQS-6" edge="1">
          <mxGeometry relative="1" as="geometry" />
        </mxCell>
        <mxCell id="2EXVOlUp1VwmMUYhzBQS-12" style="rounded=0;orthogonalLoop=1;jettySize=auto;html=1;exitX=1;exitY=1;exitDx=0;exitDy=0;entryX=0;entryY=0.5;entryDx=0;entryDy=0;endArrow=none;endFill=0;fillColor=#f5f5f5;strokeColor=#666666;strokeWidth=2;" parent="1" source="2EXVOlUp1VwmMUYhzBQS-1" target="2EXVOlUp1VwmMUYhzBQS-7" edge="1">
          <mxGeometry relative="1" as="geometry" />
        </mxCell>
        <mxCell id="2EXVOlUp1VwmMUYhzBQS-1" value="" style="ellipse;whiteSpace=wrap;html=1;aspect=fixed;strokeWidth=2;fillColor=#666666;fontColor=#333333;strokeColor=#666666;" parent="1" vertex="1">
          <mxGeometry x="315" y="210" width="30" height="30" as="geometry" />
        </mxCell>
        <mxCell id="2EXVOlUp1VwmMUYhzBQS-9" style="rounded=0;orthogonalLoop=1;jettySize=auto;html=1;exitX=1;exitY=0.5;exitDx=0;exitDy=0;entryX=0;entryY=0.5;entryDx=0;entryDy=0;endArrow=none;endFill=0;fillColor=#f5f5f5;strokeColor=#666666;strokeWidth=2;" parent="1" source="2EXVOlUp1VwmMUYhzBQS-2" target="2EXVOlUp1VwmMUYhzBQS-6" edge="1">
          <mxGeometry relative="1" as="geometry" />
        </mxCell>
        <mxCell id="2EXVOlUp1VwmMUYhzBQS-13" style="rounded=0;orthogonalLoop=1;jettySize=auto;html=1;exitX=1;exitY=0.5;exitDx=0;exitDy=0;entryX=0;entryY=0.5;entryDx=0;entryDy=0;endArrow=none;endFill=0;fillColor=#f5f5f5;strokeColor=#666666;strokeWidth=2;" parent="1" source="2EXVOlUp1VwmMUYhzBQS-2" target="2EXVOlUp1VwmMUYhzBQS-5" edge="1">
          <mxGeometry relative="1" as="geometry" />
        </mxCell>
        <mxCell id="2EXVOlUp1VwmMUYhzBQS-61" style="rounded=0;orthogonalLoop=1;jettySize=auto;html=1;exitX=1;exitY=0.5;exitDx=0;exitDy=0;entryX=0;entryY=0.5;entryDx=0;entryDy=0;strokeWidth=2;endArrow=none;endFill=0;strokeColor=#666666;" parent="1" source="2EXVOlUp1VwmMUYhzBQS-2" target="2EXVOlUp1VwmMUYhzBQS-7" edge="1">
          <mxGeometry relative="1" as="geometry" />
        </mxCell>
        <mxCell id="2EXVOlUp1VwmMUYhzBQS-2" value="" style="ellipse;whiteSpace=wrap;html=1;aspect=fixed;strokeWidth=2;fillColor=#666666;fontColor=#333333;strokeColor=#666666;" parent="1" vertex="1">
          <mxGeometry x="315" y="260" width="30" height="30" as="geometry" />
        </mxCell>
        <mxCell id="2EXVOlUp1VwmMUYhzBQS-10" style="rounded=0;orthogonalLoop=1;jettySize=auto;html=1;exitX=1;exitY=0.5;exitDx=0;exitDy=0;entryX=0;entryY=0.5;entryDx=0;entryDy=0;endArrow=none;endFill=0;fillColor=#f5f5f5;strokeColor=#666666;strokeWidth=2;" parent="1" source="2EXVOlUp1VwmMUYhzBQS-3" target="2EXVOlUp1VwmMUYhzBQS-7" edge="1">
          <mxGeometry relative="1" as="geometry" />
        </mxCell>
        <mxCell id="2EXVOlUp1VwmMUYhzBQS-16" style="rounded=0;orthogonalLoop=1;jettySize=auto;html=1;exitX=1;exitY=0.5;exitDx=0;exitDy=0;entryX=0;entryY=0.5;entryDx=0;entryDy=0;endArrow=none;endFill=0;fillColor=#f5f5f5;strokeColor=#666666;strokeWidth=2;" parent="1" source="2EXVOlUp1VwmMUYhzBQS-3" target="2EXVOlUp1VwmMUYhzBQS-6" edge="1">
          <mxGeometry relative="1" as="geometry" />
        </mxCell>
        <mxCell id="2EXVOlUp1VwmMUYhzBQS-17" style="rounded=0;orthogonalLoop=1;jettySize=auto;html=1;exitX=1;exitY=0.5;exitDx=0;exitDy=0;entryX=0;entryY=0.5;entryDx=0;entryDy=0;endArrow=none;endFill=0;fillColor=#f5f5f5;strokeColor=#666666;strokeWidth=2;" parent="1" source="2EXVOlUp1VwmMUYhzBQS-3" target="2EXVOlUp1VwmMUYhzBQS-5" edge="1">
          <mxGeometry relative="1" as="geometry" />
        </mxCell>
        <mxCell id="2EXVOlUp1VwmMUYhzBQS-3" value="" style="ellipse;whiteSpace=wrap;html=1;aspect=fixed;strokeWidth=2;fillColor=#666666;fontColor=#333333;strokeColor=#666666;" parent="1" vertex="1">
          <mxGeometry x="315" y="310" width="30" height="30" as="geometry" />
        </mxCell>
        <mxCell id="2EXVOlUp1VwmMUYhzBQS-14" style="rounded=0;orthogonalLoop=1;jettySize=auto;html=1;exitX=1;exitY=0.5;exitDx=0;exitDy=0;entryX=0;entryY=0.5;entryDx=0;entryDy=0;endArrow=none;endFill=0;fillColor=#f5f5f5;strokeColor=#666666;strokeWidth=2;" parent="1" source="2EXVOlUp1VwmMUYhzBQS-4" target="2EXVOlUp1VwmMUYhzBQS-7" edge="1">
          <mxGeometry relative="1" as="geometry" />
        </mxCell>
        <mxCell id="2EXVOlUp1VwmMUYhzBQS-15" style="rounded=0;orthogonalLoop=1;jettySize=auto;html=1;exitX=1;exitY=0.5;exitDx=0;exitDy=0;entryX=0;entryY=0.5;entryDx=0;entryDy=0;endArrow=none;endFill=0;fillColor=#f5f5f5;strokeColor=#666666;strokeWidth=2;" parent="1" source="2EXVOlUp1VwmMUYhzBQS-4" target="2EXVOlUp1VwmMUYhzBQS-6" edge="1">
          <mxGeometry relative="1" as="geometry" />
        </mxCell>
        <mxCell id="2EXVOlUp1VwmMUYhzBQS-18" style="rounded=0;orthogonalLoop=1;jettySize=auto;html=1;exitX=1;exitY=0.5;exitDx=0;exitDy=0;entryX=0;entryY=0.5;entryDx=0;entryDy=0;endArrow=none;endFill=0;fillColor=#f5f5f5;strokeColor=#666666;strokeWidth=2;" parent="1" source="2EXVOlUp1VwmMUYhzBQS-4" target="2EXVOlUp1VwmMUYhzBQS-5" edge="1">
          <mxGeometry relative="1" as="geometry" />
        </mxCell>
        <mxCell id="2EXVOlUp1VwmMUYhzBQS-4" value="" style="ellipse;whiteSpace=wrap;html=1;aspect=fixed;strokeWidth=2;fillColor=#666666;fontColor=#333333;strokeColor=#666666;" parent="1" vertex="1">
          <mxGeometry x="315" y="360" width="30" height="30" as="geometry" />
        </mxCell>
        <mxCell id="2EXVOlUp1VwmMUYhzBQS-5" value="" style="ellipse;whiteSpace=wrap;html=1;aspect=fixed;strokeWidth=2;fillColor=#666666;fontColor=#333333;strokeColor=#666666;" parent="1" vertex="1">
          <mxGeometry x="400" y="230" width="30" height="30" as="geometry" />
        </mxCell>
        <mxCell id="2EXVOlUp1VwmMUYhzBQS-6" value="" style="ellipse;whiteSpace=wrap;html=1;aspect=fixed;strokeWidth=2;fillColor=#666666;fontColor=#333333;strokeColor=#666666;" parent="1" vertex="1">
          <mxGeometry x="400" y="280" width="30" height="30" as="geometry" />
        </mxCell>
        <mxCell id="2EXVOlUp1VwmMUYhzBQS-7" value="" style="ellipse;whiteSpace=wrap;html=1;aspect=fixed;strokeWidth=2;fillColor=#666666;fontColor=#333333;strokeColor=#666666;" parent="1" vertex="1">
          <mxGeometry x="400" y="330" width="30" height="30" as="geometry" />
        </mxCell>
        <mxCell id="2EXVOlUp1VwmMUYhzBQS-23" style="rounded=0;orthogonalLoop=1;jettySize=auto;html=1;exitX=1;exitY=0.5;exitDx=0;exitDy=0;entryX=0;entryY=0.5;entryDx=0;entryDy=0;endArrow=none;endFill=0;strokeWidth=2;strokeColor=#666666;" parent="1" source="2EXVOlUp1VwmMUYhzBQS-19" target="2EXVOlUp1VwmMUYhzBQS-1" edge="1">
          <mxGeometry relative="1" as="geometry" />
        </mxCell>
        <mxCell id="2EXVOlUp1VwmMUYhzBQS-24" style="rounded=0;orthogonalLoop=1;jettySize=auto;html=1;exitX=1;exitY=0.5;exitDx=0;exitDy=0;entryX=0;entryY=0.5;entryDx=0;entryDy=0;endArrow=none;endFill=0;strokeWidth=2;strokeColor=#666666;" parent="1" source="2EXVOlUp1VwmMUYhzBQS-19" target="2EXVOlUp1VwmMUYhzBQS-2" edge="1">
          <mxGeometry relative="1" as="geometry" />
        </mxCell>
        <mxCell id="2EXVOlUp1VwmMUYhzBQS-25" style="rounded=0;orthogonalLoop=1;jettySize=auto;html=1;exitX=1;exitY=0.5;exitDx=0;exitDy=0;entryX=0;entryY=0.5;entryDx=0;entryDy=0;endArrow=none;endFill=0;strokeWidth=2;strokeColor=#666666;" parent="1" source="2EXVOlUp1VwmMUYhzBQS-19" target="2EXVOlUp1VwmMUYhzBQS-3" edge="1">
          <mxGeometry relative="1" as="geometry" />
        </mxCell>
        <mxCell id="2EXVOlUp1VwmMUYhzBQS-26" style="rounded=0;orthogonalLoop=1;jettySize=auto;html=1;exitX=1;exitY=0.5;exitDx=0;exitDy=0;entryX=0;entryY=0.5;entryDx=0;entryDy=0;endArrow=none;endFill=0;strokeWidth=2;strokeColor=#666666;" parent="1" source="2EXVOlUp1VwmMUYhzBQS-19" target="2EXVOlUp1VwmMUYhzBQS-4" edge="1">
          <mxGeometry relative="1" as="geometry" />
        </mxCell>
        <mxCell id="2EXVOlUp1VwmMUYhzBQS-19" value="" style="ellipse;whiteSpace=wrap;html=1;aspect=fixed;strokeWidth=2;fillColor=#C01C28;strokeColor=#b85450;" parent="1" vertex="1">
          <mxGeometry x="235" y="210" width="30" height="30" as="geometry" />
        </mxCell>
        <mxCell id="2EXVOlUp1VwmMUYhzBQS-27" style="rounded=0;orthogonalLoop=1;jettySize=auto;html=1;exitX=1;exitY=0.5;exitDx=0;exitDy=0;entryX=0;entryY=0.5;entryDx=0;entryDy=0;endArrow=none;endFill=0;strokeWidth=2;strokeColor=#666666;" parent="1" source="2EXVOlUp1VwmMUYhzBQS-20" target="2EXVOlUp1VwmMUYhzBQS-1" edge="1">
          <mxGeometry relative="1" as="geometry" />
        </mxCell>
        <mxCell id="2EXVOlUp1VwmMUYhzBQS-28" style="rounded=0;orthogonalLoop=1;jettySize=auto;html=1;exitX=1;exitY=0.5;exitDx=0;exitDy=0;entryX=0;entryY=0.5;entryDx=0;entryDy=0;endArrow=none;endFill=0;strokeWidth=2;strokeColor=#666666;" parent="1" source="2EXVOlUp1VwmMUYhzBQS-20" target="2EXVOlUp1VwmMUYhzBQS-2" edge="1">
          <mxGeometry relative="1" as="geometry" />
        </mxCell>
        <mxCell id="2EXVOlUp1VwmMUYhzBQS-29" style="rounded=0;orthogonalLoop=1;jettySize=auto;html=1;exitX=1;exitY=0.5;exitDx=0;exitDy=0;entryX=0;entryY=0.5;entryDx=0;entryDy=0;endArrow=none;endFill=0;strokeWidth=2;strokeColor=#666666;" parent="1" source="2EXVOlUp1VwmMUYhzBQS-20" target="2EXVOlUp1VwmMUYhzBQS-3" edge="1">
          <mxGeometry relative="1" as="geometry" />
        </mxCell>
        <mxCell id="2EXVOlUp1VwmMUYhzBQS-30" style="rounded=0;orthogonalLoop=1;jettySize=auto;html=1;exitX=1;exitY=0.5;exitDx=0;exitDy=0;entryX=0;entryY=0.5;entryDx=0;entryDy=0;endArrow=none;endFill=0;strokeWidth=2;strokeColor=#666666;" parent="1" source="2EXVOlUp1VwmMUYhzBQS-20" target="2EXVOlUp1VwmMUYhzBQS-4" edge="1">
          <mxGeometry relative="1" as="geometry" />
        </mxCell>
        <mxCell id="2EXVOlUp1VwmMUYhzBQS-31" style="rounded=0;orthogonalLoop=1;jettySize=auto;html=1;exitX=1;exitY=0.5;exitDx=0;exitDy=0;entryX=0;entryY=0.5;entryDx=0;entryDy=0;endArrow=none;endFill=0;strokeWidth=2;strokeColor=#666666;" parent="1" source="2EXVOlUp1VwmMUYhzBQS-20" target="2EXVOlUp1VwmMUYhzBQS-4" edge="1">
          <mxGeometry relative="1" as="geometry" />
        </mxCell>
        <mxCell id="2EXVOlUp1VwmMUYhzBQS-20" value="" style="ellipse;whiteSpace=wrap;html=1;aspect=fixed;strokeWidth=2;fillColor=#C01C28;strokeColor=#b85450;" parent="1" vertex="1">
          <mxGeometry x="235" y="260" width="30" height="30" as="geometry" />
        </mxCell>
        <mxCell id="2EXVOlUp1VwmMUYhzBQS-32" style="rounded=0;orthogonalLoop=1;jettySize=auto;html=1;exitX=1;exitY=0.5;exitDx=0;exitDy=0;entryX=0;entryY=0.5;entryDx=0;entryDy=0;endArrow=none;endFill=0;strokeWidth=2;strokeColor=#666666;" parent="1" source="2EXVOlUp1VwmMUYhzBQS-21" target="2EXVOlUp1VwmMUYhzBQS-2" edge="1">
          <mxGeometry relative="1" as="geometry" />
        </mxCell>
        <mxCell id="2EXVOlUp1VwmMUYhzBQS-33" style="rounded=0;orthogonalLoop=1;jettySize=auto;html=1;exitX=1;exitY=0.5;exitDx=0;exitDy=0;entryX=0;entryY=0.5;entryDx=0;entryDy=0;endArrow=none;endFill=0;strokeWidth=2;strokeColor=#666666;" parent="1" source="2EXVOlUp1VwmMUYhzBQS-21" target="2EXVOlUp1VwmMUYhzBQS-1" edge="1">
          <mxGeometry relative="1" as="geometry" />
        </mxCell>
        <mxCell id="2EXVOlUp1VwmMUYhzBQS-39" style="rounded=0;orthogonalLoop=1;jettySize=auto;html=1;exitX=1;exitY=0.5;exitDx=0;exitDy=0;entryX=0;entryY=0.5;entryDx=0;entryDy=0;endArrow=none;endFill=0;strokeWidth=2;strokeColor=#666666;" parent="1" source="2EXVOlUp1VwmMUYhzBQS-21" target="2EXVOlUp1VwmMUYhzBQS-3" edge="1">
          <mxGeometry relative="1" as="geometry" />
        </mxCell>
        <mxCell id="2EXVOlUp1VwmMUYhzBQS-40" style="rounded=0;orthogonalLoop=1;jettySize=auto;html=1;exitX=1;exitY=0.5;exitDx=0;exitDy=0;entryX=0;entryY=0.5;entryDx=0;entryDy=0;endArrow=none;endFill=0;strokeWidth=2;strokeColor=#666666;" parent="1" source="2EXVOlUp1VwmMUYhzBQS-21" target="2EXVOlUp1VwmMUYhzBQS-4" edge="1">
          <mxGeometry relative="1" as="geometry" />
        </mxCell>
        <mxCell id="2EXVOlUp1VwmMUYhzBQS-21" value="" style="ellipse;whiteSpace=wrap;html=1;aspect=fixed;strokeWidth=2;fillColor=#C01C28;strokeColor=#b85450;" parent="1" vertex="1">
          <mxGeometry x="235" y="310" width="30" height="30" as="geometry" />
        </mxCell>
        <mxCell id="2EXVOlUp1VwmMUYhzBQS-35" style="rounded=0;orthogonalLoop=1;jettySize=auto;html=1;exitX=1;exitY=0.5;exitDx=0;exitDy=0;entryX=0;entryY=0.5;entryDx=0;entryDy=0;endArrow=none;endFill=0;strokeWidth=2;strokeColor=#666666;" parent="1" source="2EXVOlUp1VwmMUYhzBQS-22" target="2EXVOlUp1VwmMUYhzBQS-4" edge="1">
          <mxGeometry relative="1" as="geometry" />
        </mxCell>
        <mxCell id="2EXVOlUp1VwmMUYhzBQS-36" style="rounded=0;orthogonalLoop=1;jettySize=auto;html=1;exitX=1;exitY=0.5;exitDx=0;exitDy=0;entryX=0;entryY=0.5;entryDx=0;entryDy=0;endArrow=none;endFill=0;strokeWidth=2;strokeColor=#666666;" parent="1" source="2EXVOlUp1VwmMUYhzBQS-22" target="2EXVOlUp1VwmMUYhzBQS-3" edge="1">
          <mxGeometry relative="1" as="geometry" />
        </mxCell>
        <mxCell id="2EXVOlUp1VwmMUYhzBQS-37" style="rounded=0;orthogonalLoop=1;jettySize=auto;html=1;exitX=1;exitY=0.5;exitDx=0;exitDy=0;entryX=0;entryY=0.5;entryDx=0;entryDy=0;endArrow=none;endFill=0;strokeWidth=2;strokeColor=#666666;" parent="1" source="2EXVOlUp1VwmMUYhzBQS-22" target="2EXVOlUp1VwmMUYhzBQS-2" edge="1">
          <mxGeometry relative="1" as="geometry" />
        </mxCell>
        <mxCell id="2EXVOlUp1VwmMUYhzBQS-38" style="rounded=0;orthogonalLoop=1;jettySize=auto;html=1;exitX=1;exitY=0.5;exitDx=0;exitDy=0;entryX=0;entryY=0.5;entryDx=0;entryDy=0;endArrow=none;endFill=0;strokeWidth=2;strokeColor=#666666;" parent="1" source="2EXVOlUp1VwmMUYhzBQS-22" target="2EXVOlUp1VwmMUYhzBQS-1" edge="1">
          <mxGeometry relative="1" as="geometry" />
        </mxCell>
        <mxCell id="2EXVOlUp1VwmMUYhzBQS-22" value="" style="ellipse;whiteSpace=wrap;html=1;aspect=fixed;strokeWidth=2;fillColor=#C01C28;strokeColor=#b85450;" parent="1" vertex="1">
          <mxGeometry x="235" y="360" width="30" height="30" as="geometry" />
        </mxCell>
        <mxCell id="2EXVOlUp1VwmMUYhzBQS-53" style="rounded=0;orthogonalLoop=1;jettySize=auto;html=1;exitX=0;exitY=0;exitDx=40;exitDy=37;exitPerimeter=0;entryX=0;entryY=0.5;entryDx=0;entryDy=0;endArrow=none;endFill=0;strokeWidth=2;strokeColor=#CC0000;" parent="1" source="2EXVOlUp1VwmMUYhzBQS-51" target="2EXVOlUp1VwmMUYhzBQS-19" edge="1">
          <mxGeometry relative="1" as="geometry" />
        </mxCell>
        <mxCell id="2EXVOlUp1VwmMUYhzBQS-54" style="rounded=0;orthogonalLoop=1;jettySize=auto;html=1;exitX=0;exitY=0;exitDx=40;exitDy=37;exitPerimeter=0;entryX=0;entryY=0.5;entryDx=0;entryDy=0;endArrow=none;endFill=0;strokeWidth=2;strokeColor=#CC0000;" parent="1" source="2EXVOlUp1VwmMUYhzBQS-51" target="2EXVOlUp1VwmMUYhzBQS-20" edge="1">
          <mxGeometry relative="1" as="geometry" />
        </mxCell>
        <mxCell id="2EXVOlUp1VwmMUYhzBQS-55" style="rounded=0;orthogonalLoop=1;jettySize=auto;html=1;exitX=0;exitY=0;exitDx=40;exitDy=37;exitPerimeter=0;entryX=0;entryY=0.5;entryDx=0;entryDy=0;endArrow=none;endFill=0;strokeWidth=2;strokeColor=#CC0000;" parent="1" source="2EXVOlUp1VwmMUYhzBQS-51" target="2EXVOlUp1VwmMUYhzBQS-21" edge="1">
          <mxGeometry relative="1" as="geometry" />
        </mxCell>
        <mxCell id="2EXVOlUp1VwmMUYhzBQS-56" style="rounded=0;orthogonalLoop=1;jettySize=auto;html=1;exitX=0;exitY=0;exitDx=40;exitDy=37;exitPerimeter=0;entryX=0;entryY=0.5;entryDx=0;entryDy=0;endArrow=none;endFill=0;strokeWidth=2;strokeColor=#CC0000;" parent="1" source="2EXVOlUp1VwmMUYhzBQS-51" target="2EXVOlUp1VwmMUYhzBQS-22" edge="1">
          <mxGeometry relative="1" as="geometry" />
        </mxCell>
        <mxCell id="2EXVOlUp1VwmMUYhzBQS-57" value="" style="group" parent="1" vertex="1" connectable="0">
          <mxGeometry x="10" y="200" width="190" height="100" as="geometry" />
        </mxCell>
        <mxCell id="2EXVOlUp1VwmMUYhzBQS-45" value="" style="shape=note;whiteSpace=wrap;html=1;backgroundOutline=1;darkOpacity=0.05;size=14;" parent="2EXVOlUp1VwmMUYhzBQS-57" vertex="1">
          <mxGeometry x="20" y="9.86" width="55.88235294117647" height="84.50704225352112" as="geometry" />
        </mxCell>
        <mxCell id="2EXVOlUp1VwmMUYhzBQS-46" value="" style="shape=note;whiteSpace=wrap;html=1;backgroundOutline=1;darkOpacity=0.05;size=14;" parent="2EXVOlUp1VwmMUYhzBQS-57" vertex="1">
          <mxGeometry x="24.191176470588236" y="14.085352112676055" width="55.88235294117647" height="84.50704225352112" as="geometry" />
        </mxCell>
        <mxCell id="2EXVOlUp1VwmMUYhzBQS-48" style="rounded=0;orthogonalLoop=1;jettySize=auto;html=1;exitX=0;exitY=0;exitDx=40;exitDy=37;exitPerimeter=0;entryX=0.008;entryY=0.637;entryDx=0;entryDy=0;entryPerimeter=0;endArrow=classicThin;endFill=1;" parent="2EXVOlUp1VwmMUYhzBQS-57" source="2EXVOlUp1VwmMUYhzBQS-47" target="2EXVOlUp1VwmMUYhzBQS-49" edge="1">
          <mxGeometry relative="1" as="geometry">
            <mxPoint x="27.941176470588236" y="-197.18309859154928" as="targetPoint" />
          </mxGeometry>
        </mxCell>
        <mxCell id="2EXVOlUp1VwmMUYhzBQS-47" value="&lt;font face=&quot;Times New Roman&quot;&gt;Train&lt;br&gt;Data&lt;/font&gt;" style="shape=note;whiteSpace=wrap;html=1;backgroundOutline=1;darkOpacity=0.05;size=14;" parent="2EXVOlUp1VwmMUYhzBQS-57" vertex="1">
          <mxGeometry x="28.38235294117647" y="18.31070422535211" width="55.88235294117647" height="84.50704225352112" as="geometry" />
        </mxCell>
        <mxCell id="2EXVOlUp1VwmMUYhzBQS-49" value="" style="shape=note;whiteSpace=wrap;html=1;backgroundOutline=1;darkOpacity=0.05;size=14;" parent="2EXVOlUp1VwmMUYhzBQS-57" vertex="1">
          <mxGeometry x="125.73529411764707" y="5.633802816901408" width="55.88235294117647" height="84.50704225352112" as="geometry" />
        </mxCell>
        <mxCell id="2EXVOlUp1VwmMUYhzBQS-50" value="" style="shape=note;whiteSpace=wrap;html=1;backgroundOutline=1;darkOpacity=0.05;size=14;" parent="2EXVOlUp1VwmMUYhzBQS-57" vertex="1">
          <mxGeometry x="129.9264705882353" y="9.859154929577464" width="55.88235294117647" height="84.50704225352112" as="geometry" />
        </mxCell>
        <mxCell id="2EXVOlUp1VwmMUYhzBQS-51" value="&lt;font face=&quot;Times New Roman&quot;&gt;Data&lt;/font&gt;" style="shape=note;whiteSpace=wrap;html=1;backgroundOutline=1;darkOpacity=0.05;size=14;" parent="2EXVOlUp1VwmMUYhzBQS-57" vertex="1">
          <mxGeometry x="134.11764705882354" y="14.08450704225352" width="55.88235294117647" height="84.50704225352112" as="geometry" />
        </mxCell>
        <mxCell id="2EXVOlUp1VwmMUYhzBQS-52" value="" style="sketch=0;pointerEvents=1;shadow=0;dashed=0;html=1;strokeColor=none;labelPosition=center;verticalLabelPosition=bottom;verticalAlign=top;outlineConnect=0;align=center;shape=mxgraph.office.security.lock_protected;fillColor=#DA4026;" parent="2EXVOlUp1VwmMUYhzBQS-57" vertex="1">
          <mxGeometry x="170.44117647058823" y="70.4225352112676" width="19.558823529411768" height="29.577464788732392" as="geometry" />
        </mxCell>
        <mxCell id="2EXVOlUp1VwmMUYhzBQS-62" value="" style="sketch=0;aspect=fixed;pointerEvents=1;shadow=0;dashed=0;html=1;strokeColor=none;labelPosition=center;verticalLabelPosition=bottom;verticalAlign=top;align=center;fillColor=#00188D;shape=mxgraph.mscae.enterprise.key_permissions" parent="2EXVOlUp1VwmMUYhzBQS-57" vertex="1">
          <mxGeometry x="90" y="41.34" width="15.6" height="30" as="geometry" />
        </mxCell>
        <mxCell id="2EXVOlUp1VwmMUYhzBQS-63" value="" style="sketch=0;aspect=fixed;pointerEvents=1;shadow=0;dashed=0;html=1;strokeColor=none;labelPosition=center;verticalLabelPosition=bottom;verticalAlign=top;align=center;fillColor=#4A8D29;shape=mxgraph.mscae.enterprise.key_permissions" parent="1" vertex="1">
          <mxGeometry x="282.2" y="210" width="15.6" height="30" as="geometry" />
        </mxCell>
        <mxCell id="xfyd0tg26X2Eod8Ik0Pi-49" style="edgeStyle=orthogonalEdgeStyle;rounded=0;orthogonalLoop=1;jettySize=auto;html=1;exitX=1;exitY=0.5;exitDx=0;exitDy=0;entryX=0;entryY=0.5;entryDx=0;entryDy=0;endArrow=openThin;endFill=0;strokeWidth=2;strokeColor=#666666;" edge="1" parent="1" source="xfyd0tg26X2Eod8Ik0Pi-1" target="xfyd0tg26X2Eod8Ik0Pi-44">
          <mxGeometry relative="1" as="geometry" />
        </mxCell>
        <mxCell id="xfyd0tg26X2Eod8Ik0Pi-1" value="" style="ellipse;whiteSpace=wrap;html=1;aspect=fixed;strokeWidth=2;fillColor=#666666;fontColor=#333333;strokeColor=#666666;" vertex="1" parent="1">
          <mxGeometry x="306" y="505" width="10" height="10" as="geometry" />
        </mxCell>
        <mxCell id="xfyd0tg26X2Eod8Ik0Pi-50" style="edgeStyle=orthogonalEdgeStyle;rounded=0;orthogonalLoop=1;jettySize=auto;html=1;exitX=1;exitY=0.5;exitDx=0;exitDy=0;entryX=0;entryY=0.5;entryDx=0;entryDy=0;endArrow=openThin;endFill=0;strokeWidth=2;strokeColor=#666666;" edge="1" parent="1" source="xfyd0tg26X2Eod8Ik0Pi-2" target="xfyd0tg26X2Eod8Ik0Pi-45">
          <mxGeometry relative="1" as="geometry" />
        </mxCell>
        <mxCell id="xfyd0tg26X2Eod8Ik0Pi-2" value="" style="ellipse;whiteSpace=wrap;html=1;aspect=fixed;strokeWidth=2;fillColor=#666666;fontColor=#333333;strokeColor=#666666;" vertex="1" parent="1">
          <mxGeometry x="306" y="555" width="10" height="10" as="geometry" />
        </mxCell>
        <mxCell id="xfyd0tg26X2Eod8Ik0Pi-51" style="edgeStyle=orthogonalEdgeStyle;rounded=0;orthogonalLoop=1;jettySize=auto;html=1;exitX=1;exitY=0.5;exitDx=0;exitDy=0;entryX=0;entryY=0.5;entryDx=0;entryDy=0;endArrow=openThin;endFill=0;strokeWidth=2;strokeColor=#666666;" edge="1" parent="1" source="xfyd0tg26X2Eod8Ik0Pi-3" target="xfyd0tg26X2Eod8Ik0Pi-46">
          <mxGeometry relative="1" as="geometry" />
        </mxCell>
        <mxCell id="xfyd0tg26X2Eod8Ik0Pi-3" value="" style="ellipse;whiteSpace=wrap;html=1;aspect=fixed;strokeWidth=2;fillColor=#666666;fontColor=#333333;strokeColor=#666666;" vertex="1" parent="1">
          <mxGeometry x="305" y="625" width="10" height="10" as="geometry" />
        </mxCell>
        <mxCell id="xfyd0tg26X2Eod8Ik0Pi-52" style="edgeStyle=orthogonalEdgeStyle;rounded=0;orthogonalLoop=1;jettySize=auto;html=1;exitX=1;exitY=0.5;exitDx=0;exitDy=0;entryX=0;entryY=0.5;entryDx=0;entryDy=0;endArrow=openThin;endFill=0;strokeWidth=2;strokeColor=#666666;" edge="1" parent="1" source="xfyd0tg26X2Eod8Ik0Pi-4" target="xfyd0tg26X2Eod8Ik0Pi-47">
          <mxGeometry relative="1" as="geometry" />
        </mxCell>
        <mxCell id="xfyd0tg26X2Eod8Ik0Pi-4" value="" style="ellipse;whiteSpace=wrap;html=1;aspect=fixed;strokeWidth=2;fillColor=#666666;fontColor=#333333;strokeColor=#666666;" vertex="1" parent="1">
          <mxGeometry x="306" y="675" width="10" height="10" as="geometry" />
        </mxCell>
        <mxCell id="xfyd0tg26X2Eod8Ik0Pi-5" style="rounded=0;orthogonalLoop=1;jettySize=auto;html=1;exitX=1;exitY=0.5;exitDx=0;exitDy=0;entryX=0;entryY=0.5;entryDx=0;entryDy=0;endArrow=none;endFill=0;strokeWidth=2;strokeColor=#666666;" edge="1" parent="1" source="xfyd0tg26X2Eod8Ik0Pi-9" target="xfyd0tg26X2Eod8Ik0Pi-1">
          <mxGeometry relative="1" as="geometry" />
        </mxCell>
        <mxCell id="xfyd0tg26X2Eod8Ik0Pi-6" style="rounded=0;orthogonalLoop=1;jettySize=auto;html=1;exitX=1;exitY=0.5;exitDx=0;exitDy=0;entryX=0;entryY=0.5;entryDx=0;entryDy=0;endArrow=none;endFill=0;strokeWidth=2;strokeColor=#666666;" edge="1" parent="1" source="xfyd0tg26X2Eod8Ik0Pi-9" target="xfyd0tg26X2Eod8Ik0Pi-2">
          <mxGeometry relative="1" as="geometry" />
        </mxCell>
        <mxCell id="xfyd0tg26X2Eod8Ik0Pi-7" style="rounded=0;orthogonalLoop=1;jettySize=auto;html=1;exitX=1;exitY=0.5;exitDx=0;exitDy=0;entryX=0;entryY=0.5;entryDx=0;entryDy=0;endArrow=none;endFill=0;strokeWidth=2;strokeColor=#666666;" edge="1" parent="1" source="xfyd0tg26X2Eod8Ik0Pi-9" target="xfyd0tg26X2Eod8Ik0Pi-3">
          <mxGeometry relative="1" as="geometry" />
        </mxCell>
        <mxCell id="xfyd0tg26X2Eod8Ik0Pi-8" style="rounded=0;orthogonalLoop=1;jettySize=auto;html=1;exitX=1;exitY=0.5;exitDx=0;exitDy=0;entryX=0;entryY=0.5;entryDx=0;entryDy=0;endArrow=none;endFill=0;strokeWidth=2;strokeColor=#666666;" edge="1" parent="1" source="xfyd0tg26X2Eod8Ik0Pi-9" target="xfyd0tg26X2Eod8Ik0Pi-4">
          <mxGeometry relative="1" as="geometry" />
        </mxCell>
        <mxCell id="xfyd0tg26X2Eod8Ik0Pi-40" style="rounded=0;orthogonalLoop=1;jettySize=auto;html=1;exitX=1;exitY=0.5;exitDx=0;exitDy=0;entryX=0;entryY=0.5;entryDx=0;entryDy=0;strokeWidth=2;strokeColor=#666666;endArrow=none;endFill=0;" edge="1" parent="1" source="xfyd0tg26X2Eod8Ik0Pi-9" target="xfyd0tg26X2Eod8Ik0Pi-29">
          <mxGeometry relative="1" as="geometry" />
        </mxCell>
        <mxCell id="xfyd0tg26X2Eod8Ik0Pi-9" value="" style="ellipse;whiteSpace=wrap;html=1;aspect=fixed;strokeWidth=2;fillColor=#C01C28;strokeColor=#b85450;" vertex="1" parent="1">
          <mxGeometry x="220" y="500" width="20" height="20" as="geometry" />
        </mxCell>
        <mxCell id="xfyd0tg26X2Eod8Ik0Pi-10" style="rounded=0;orthogonalLoop=1;jettySize=auto;html=1;exitX=1;exitY=0.5;exitDx=0;exitDy=0;entryX=0;entryY=0.5;entryDx=0;entryDy=0;endArrow=none;endFill=0;strokeWidth=2;strokeColor=#666666;" edge="1" parent="1" source="xfyd0tg26X2Eod8Ik0Pi-15" target="xfyd0tg26X2Eod8Ik0Pi-1">
          <mxGeometry relative="1" as="geometry" />
        </mxCell>
        <mxCell id="xfyd0tg26X2Eod8Ik0Pi-11" style="rounded=0;orthogonalLoop=1;jettySize=auto;html=1;exitX=1;exitY=0.5;exitDx=0;exitDy=0;entryX=0;entryY=0.5;entryDx=0;entryDy=0;endArrow=none;endFill=0;strokeWidth=2;strokeColor=#666666;" edge="1" parent="1" source="xfyd0tg26X2Eod8Ik0Pi-15" target="xfyd0tg26X2Eod8Ik0Pi-2">
          <mxGeometry relative="1" as="geometry" />
        </mxCell>
        <mxCell id="xfyd0tg26X2Eod8Ik0Pi-12" style="rounded=0;orthogonalLoop=1;jettySize=auto;html=1;exitX=1;exitY=0.5;exitDx=0;exitDy=0;entryX=0;entryY=0.5;entryDx=0;entryDy=0;endArrow=none;endFill=0;strokeWidth=2;strokeColor=#666666;" edge="1" parent="1" source="xfyd0tg26X2Eod8Ik0Pi-15" target="xfyd0tg26X2Eod8Ik0Pi-3">
          <mxGeometry relative="1" as="geometry" />
        </mxCell>
        <mxCell id="xfyd0tg26X2Eod8Ik0Pi-13" style="rounded=0;orthogonalLoop=1;jettySize=auto;html=1;exitX=1;exitY=0.5;exitDx=0;exitDy=0;entryX=0;entryY=0.5;entryDx=0;entryDy=0;endArrow=none;endFill=0;strokeWidth=2;strokeColor=#666666;" edge="1" parent="1" source="xfyd0tg26X2Eod8Ik0Pi-15" target="xfyd0tg26X2Eod8Ik0Pi-4">
          <mxGeometry relative="1" as="geometry" />
        </mxCell>
        <mxCell id="xfyd0tg26X2Eod8Ik0Pi-14" style="rounded=0;orthogonalLoop=1;jettySize=auto;html=1;exitX=1;exitY=0.5;exitDx=0;exitDy=0;entryX=0;entryY=0.5;entryDx=0;entryDy=0;endArrow=none;endFill=0;strokeWidth=2;strokeColor=#666666;" edge="1" parent="1" source="xfyd0tg26X2Eod8Ik0Pi-15" target="xfyd0tg26X2Eod8Ik0Pi-4">
          <mxGeometry relative="1" as="geometry" />
        </mxCell>
        <mxCell id="xfyd0tg26X2Eod8Ik0Pi-39" style="rounded=0;orthogonalLoop=1;jettySize=auto;html=1;exitX=1;exitY=0.5;exitDx=0;exitDy=0;strokeWidth=2;strokeColor=#666666;endArrow=none;endFill=0;entryX=0.152;entryY=0.432;entryDx=0;entryDy=0;entryPerimeter=0;" edge="1" parent="1" source="xfyd0tg26X2Eod8Ik0Pi-15" target="xfyd0tg26X2Eod8Ik0Pi-29">
          <mxGeometry relative="1" as="geometry">
            <mxPoint x="300" y="710" as="targetPoint" />
          </mxGeometry>
        </mxCell>
        <mxCell id="xfyd0tg26X2Eod8Ik0Pi-15" value="" style="ellipse;whiteSpace=wrap;html=1;aspect=fixed;strokeWidth=2;fillColor=#C01C28;strokeColor=#b85450;" vertex="1" parent="1">
          <mxGeometry x="220" y="550" width="20" height="20" as="geometry" />
        </mxCell>
        <mxCell id="xfyd0tg26X2Eod8Ik0Pi-16" style="rounded=0;orthogonalLoop=1;jettySize=auto;html=1;exitX=1;exitY=0.5;exitDx=0;exitDy=0;entryX=0;entryY=0.5;entryDx=0;entryDy=0;endArrow=none;endFill=0;strokeWidth=2;strokeColor=#666666;" edge="1" parent="1" source="xfyd0tg26X2Eod8Ik0Pi-20" target="xfyd0tg26X2Eod8Ik0Pi-2">
          <mxGeometry relative="1" as="geometry" />
        </mxCell>
        <mxCell id="xfyd0tg26X2Eod8Ik0Pi-17" style="rounded=0;orthogonalLoop=1;jettySize=auto;html=1;exitX=1;exitY=0.5;exitDx=0;exitDy=0;entryX=0;entryY=0.5;entryDx=0;entryDy=0;endArrow=none;endFill=0;strokeWidth=2;strokeColor=#666666;" edge="1" parent="1" source="xfyd0tg26X2Eod8Ik0Pi-20" target="xfyd0tg26X2Eod8Ik0Pi-1">
          <mxGeometry relative="1" as="geometry" />
        </mxCell>
        <mxCell id="xfyd0tg26X2Eod8Ik0Pi-18" style="rounded=0;orthogonalLoop=1;jettySize=auto;html=1;exitX=1;exitY=0.5;exitDx=0;exitDy=0;entryX=0;entryY=0.5;entryDx=0;entryDy=0;endArrow=none;endFill=0;strokeWidth=2;strokeColor=#666666;" edge="1" parent="1" source="xfyd0tg26X2Eod8Ik0Pi-20" target="xfyd0tg26X2Eod8Ik0Pi-3">
          <mxGeometry relative="1" as="geometry" />
        </mxCell>
        <mxCell id="xfyd0tg26X2Eod8Ik0Pi-19" style="rounded=0;orthogonalLoop=1;jettySize=auto;html=1;exitX=1;exitY=0.5;exitDx=0;exitDy=0;entryX=0;entryY=0.5;entryDx=0;entryDy=0;endArrow=none;endFill=0;strokeWidth=2;strokeColor=#666666;" edge="1" parent="1" source="xfyd0tg26X2Eod8Ik0Pi-20" target="xfyd0tg26X2Eod8Ik0Pi-4">
          <mxGeometry relative="1" as="geometry" />
        </mxCell>
        <mxCell id="xfyd0tg26X2Eod8Ik0Pi-38" style="rounded=0;orthogonalLoop=1;jettySize=auto;html=1;exitX=1;exitY=0.5;exitDx=0;exitDy=0;strokeWidth=2;strokeColor=#666666;endArrow=none;endFill=0;entryX=0.216;entryY=0.384;entryDx=0;entryDy=0;entryPerimeter=0;" edge="1" parent="1" source="xfyd0tg26X2Eod8Ik0Pi-20" target="xfyd0tg26X2Eod8Ik0Pi-29">
          <mxGeometry relative="1" as="geometry">
            <mxPoint x="300" y="720" as="targetPoint" />
          </mxGeometry>
        </mxCell>
        <mxCell id="xfyd0tg26X2Eod8Ik0Pi-20" value="" style="ellipse;whiteSpace=wrap;html=1;aspect=fixed;strokeWidth=2;fillColor=#C01C28;strokeColor=#b85450;" vertex="1" parent="1">
          <mxGeometry x="220" y="620" width="20" height="20" as="geometry" />
        </mxCell>
        <mxCell id="xfyd0tg26X2Eod8Ik0Pi-21" style="rounded=0;orthogonalLoop=1;jettySize=auto;html=1;exitX=1;exitY=0.5;exitDx=0;exitDy=0;entryX=0;entryY=0.5;entryDx=0;entryDy=0;endArrow=none;endFill=0;strokeWidth=2;strokeColor=#666666;" edge="1" parent="1" source="xfyd0tg26X2Eod8Ik0Pi-25" target="xfyd0tg26X2Eod8Ik0Pi-4">
          <mxGeometry relative="1" as="geometry" />
        </mxCell>
        <mxCell id="xfyd0tg26X2Eod8Ik0Pi-22" style="rounded=0;orthogonalLoop=1;jettySize=auto;html=1;exitX=1;exitY=0.5;exitDx=0;exitDy=0;entryX=0;entryY=0.5;entryDx=0;entryDy=0;endArrow=none;endFill=0;strokeWidth=2;strokeColor=#666666;" edge="1" parent="1" source="xfyd0tg26X2Eod8Ik0Pi-25" target="xfyd0tg26X2Eod8Ik0Pi-3">
          <mxGeometry relative="1" as="geometry" />
        </mxCell>
        <mxCell id="xfyd0tg26X2Eod8Ik0Pi-23" style="rounded=0;orthogonalLoop=1;jettySize=auto;html=1;exitX=1;exitY=0.5;exitDx=0;exitDy=0;entryX=0;entryY=0.5;entryDx=0;entryDy=0;endArrow=none;endFill=0;strokeWidth=2;strokeColor=#666666;" edge="1" parent="1" source="xfyd0tg26X2Eod8Ik0Pi-25" target="xfyd0tg26X2Eod8Ik0Pi-2">
          <mxGeometry relative="1" as="geometry" />
        </mxCell>
        <mxCell id="xfyd0tg26X2Eod8Ik0Pi-24" style="rounded=0;orthogonalLoop=1;jettySize=auto;html=1;exitX=1;exitY=0.5;exitDx=0;exitDy=0;entryX=0;entryY=0.5;entryDx=0;entryDy=0;endArrow=none;endFill=0;strokeWidth=2;strokeColor=#666666;" edge="1" parent="1" source="xfyd0tg26X2Eod8Ik0Pi-25" target="xfyd0tg26X2Eod8Ik0Pi-1">
          <mxGeometry relative="1" as="geometry" />
        </mxCell>
        <mxCell id="xfyd0tg26X2Eod8Ik0Pi-37" style="rounded=0;orthogonalLoop=1;jettySize=auto;html=1;exitX=1;exitY=0.5;exitDx=0;exitDy=0;entryX=0;entryY=0.5;entryDx=0;entryDy=0;strokeWidth=2;strokeColor=#666666;endArrow=none;endFill=0;" edge="1" parent="1" source="xfyd0tg26X2Eod8Ik0Pi-25" target="xfyd0tg26X2Eod8Ik0Pi-29">
          <mxGeometry relative="1" as="geometry" />
        </mxCell>
        <mxCell id="xfyd0tg26X2Eod8Ik0Pi-25" value="" style="ellipse;whiteSpace=wrap;html=1;aspect=fixed;strokeWidth=2;fillColor=#C01C28;strokeColor=#b85450;" vertex="1" parent="1">
          <mxGeometry x="220" y="670" width="20" height="20" as="geometry" />
        </mxCell>
        <mxCell id="xfyd0tg26X2Eod8Ik0Pi-32" style="rounded=0;orthogonalLoop=1;jettySize=auto;html=1;exitX=1;exitY=0.5;exitDx=0;exitDy=0;entryX=0;entryY=0.5;entryDx=0;entryDy=0;strokeWidth=2;strokeColor=#666666;endArrow=none;endFill=0;" edge="1" parent="1" source="xfyd0tg26X2Eod8Ik0Pi-28" target="xfyd0tg26X2Eod8Ik0Pi-1">
          <mxGeometry relative="1" as="geometry" />
        </mxCell>
        <mxCell id="xfyd0tg26X2Eod8Ik0Pi-33" style="rounded=0;orthogonalLoop=1;jettySize=auto;html=1;exitX=1;exitY=0.5;exitDx=0;exitDy=0;entryX=0;entryY=0.5;entryDx=0;entryDy=0;strokeWidth=2;strokeColor=#666666;endArrow=none;endFill=0;" edge="1" parent="1" source="xfyd0tg26X2Eod8Ik0Pi-28" target="xfyd0tg26X2Eod8Ik0Pi-2">
          <mxGeometry relative="1" as="geometry" />
        </mxCell>
        <mxCell id="xfyd0tg26X2Eod8Ik0Pi-34" style="rounded=0;orthogonalLoop=1;jettySize=auto;html=1;exitX=1;exitY=0.5;exitDx=0;exitDy=0;strokeWidth=2;strokeColor=#666666;endArrow=none;endFill=0;entryX=0;entryY=0.5;entryDx=0;entryDy=0;" edge="1" parent="1" source="xfyd0tg26X2Eod8Ik0Pi-28" target="xfyd0tg26X2Eod8Ik0Pi-3">
          <mxGeometry relative="1" as="geometry">
            <mxPoint x="300" y="630" as="targetPoint" />
          </mxGeometry>
        </mxCell>
        <mxCell id="xfyd0tg26X2Eod8Ik0Pi-35" style="rounded=0;orthogonalLoop=1;jettySize=auto;html=1;exitX=1;exitY=0.5;exitDx=0;exitDy=0;strokeWidth=2;strokeColor=#666666;endArrow=none;endFill=0;" edge="1" parent="1" source="xfyd0tg26X2Eod8Ik0Pi-28">
          <mxGeometry relative="1" as="geometry">
            <mxPoint x="310" y="680" as="targetPoint" />
          </mxGeometry>
        </mxCell>
        <mxCell id="xfyd0tg26X2Eod8Ik0Pi-36" style="rounded=0;orthogonalLoop=1;jettySize=auto;html=1;exitX=1;exitY=0.5;exitDx=0;exitDy=0;entryX=0;entryY=0.5;entryDx=0;entryDy=0;strokeWidth=2;strokeColor=#666666;endArrow=none;endFill=0;" edge="1" parent="1" source="xfyd0tg26X2Eod8Ik0Pi-28" target="xfyd0tg26X2Eod8Ik0Pi-29">
          <mxGeometry relative="1" as="geometry" />
        </mxCell>
        <mxCell id="xfyd0tg26X2Eod8Ik0Pi-28" value="" style="ellipse;whiteSpace=wrap;html=1;aspect=fixed;strokeWidth=2;fillColor=#C01C28;strokeColor=#b85450;" vertex="1" parent="1">
          <mxGeometry x="220" y="710" width="20" height="20" as="geometry" />
        </mxCell>
        <mxCell id="xfyd0tg26X2Eod8Ik0Pi-53" style="edgeStyle=orthogonalEdgeStyle;rounded=0;orthogonalLoop=1;jettySize=auto;html=1;exitX=1;exitY=0.5;exitDx=0;exitDy=0;entryX=0;entryY=0.5;entryDx=0;entryDy=0;endArrow=openThin;endFill=0;strokeWidth=2;strokeColor=#666666;" edge="1" parent="1" source="xfyd0tg26X2Eod8Ik0Pi-29" target="xfyd0tg26X2Eod8Ik0Pi-59">
          <mxGeometry relative="1" as="geometry">
            <mxPoint x="350" y="718.7500000000001" as="targetPoint" />
          </mxGeometry>
        </mxCell>
        <mxCell id="xfyd0tg26X2Eod8Ik0Pi-29" value="" style="ellipse;whiteSpace=wrap;html=1;aspect=fixed;strokeWidth=2;fillColor=#666666;fontColor=#333333;strokeColor=#666666;" vertex="1" parent="1">
          <mxGeometry x="305" y="715" width="10" height="10" as="geometry" />
        </mxCell>
        <mxCell id="xfyd0tg26X2Eod8Ik0Pi-30" value="..." style="text;html=1;align=center;verticalAlign=middle;resizable=0;points=[];autosize=1;strokeColor=none;fillColor=none;" vertex="1" parent="1">
          <mxGeometry x="216" y="578" width="30" height="30" as="geometry" />
        </mxCell>
        <mxCell id="xfyd0tg26X2Eod8Ik0Pi-31" value="..." style="text;html=1;align=center;verticalAlign=middle;resizable=0;points=[];autosize=1;strokeColor=none;fillColor=none;" vertex="1" parent="1">
          <mxGeometry x="296" y="578" width="30" height="30" as="geometry" />
        </mxCell>
        <mxCell id="xfyd0tg26X2Eod8Ik0Pi-42" value="&lt;div&gt;&lt;font color=&quot;#666666&quot;&gt;enc(X)&lt;/font&gt;&lt;/div&gt;" style="text;html=1;align=center;verticalAlign=middle;resizable=0;points=[];autosize=1;strokeColor=none;fillColor=none;fontSize=11;fontFamily=Times New Roman;" vertex="1" parent="1">
          <mxGeometry x="205" y="470" width="50" height="30" as="geometry" />
        </mxCell>
        <mxCell id="xfyd0tg26X2Eod8Ik0Pi-43" value="&lt;font style=&quot;font-size: 11px;&quot; color=&quot;#666666&quot;&gt;WX&lt;/font&gt;" style="text;html=1;align=center;verticalAlign=middle;resizable=0;points=[];autosize=1;strokeColor=none;fillColor=none;fontSize=11;fontFamily=Times New Roman;" vertex="1" parent="1">
          <mxGeometry x="290" y="475" width="40" height="30" as="geometry" />
        </mxCell>
        <mxCell id="xfyd0tg26X2Eod8Ik0Pi-61" style="edgeStyle=orthogonalEdgeStyle;rounded=0;orthogonalLoop=1;jettySize=auto;html=1;exitX=1;exitY=0.5;exitDx=0;exitDy=0;entryX=0;entryY=0.5;entryDx=0;entryDy=0;fontColor=#666666;endArrow=openThin;endFill=0;strokeWidth=2;strokeColor=#666666;" edge="1" parent="1" source="xfyd0tg26X2Eod8Ik0Pi-44" target="xfyd0tg26X2Eod8Ik0Pi-54">
          <mxGeometry relative="1" as="geometry" />
        </mxCell>
        <mxCell id="xfyd0tg26X2Eod8Ik0Pi-44" value="" style="ellipse;whiteSpace=wrap;html=1;aspect=fixed;strokeWidth=2;fillColor=#666666;fontColor=#333333;strokeColor=#666666;" vertex="1" parent="1">
          <mxGeometry x="350" y="505" width="10" height="10" as="geometry" />
        </mxCell>
        <mxCell id="xfyd0tg26X2Eod8Ik0Pi-62" style="edgeStyle=orthogonalEdgeStyle;rounded=0;orthogonalLoop=1;jettySize=auto;html=1;exitX=1;exitY=0.5;exitDx=0;exitDy=0;entryX=0;entryY=0.5;entryDx=0;entryDy=0;fontColor=#666666;endArrow=openThin;endFill=0;strokeWidth=2;strokeColor=#666666;" edge="1" parent="1" source="xfyd0tg26X2Eod8Ik0Pi-45" target="xfyd0tg26X2Eod8Ik0Pi-55">
          <mxGeometry relative="1" as="geometry" />
        </mxCell>
        <mxCell id="xfyd0tg26X2Eod8Ik0Pi-45" value="" style="ellipse;whiteSpace=wrap;html=1;aspect=fixed;strokeWidth=2;fillColor=#666666;fontColor=#333333;strokeColor=#666666;" vertex="1" parent="1">
          <mxGeometry x="350" y="555" width="10" height="10" as="geometry" />
        </mxCell>
        <mxCell id="xfyd0tg26X2Eod8Ik0Pi-63" style="edgeStyle=orthogonalEdgeStyle;rounded=0;orthogonalLoop=1;jettySize=auto;html=1;exitX=1;exitY=0.5;exitDx=0;exitDy=0;entryX=0;entryY=0.5;entryDx=0;entryDy=0;fontColor=#666666;endArrow=openThin;endFill=0;strokeWidth=2;strokeColor=#666666;" edge="1" parent="1" source="xfyd0tg26X2Eod8Ik0Pi-46" target="xfyd0tg26X2Eod8Ik0Pi-56">
          <mxGeometry relative="1" as="geometry" />
        </mxCell>
        <mxCell id="xfyd0tg26X2Eod8Ik0Pi-46" value="" style="ellipse;whiteSpace=wrap;html=1;aspect=fixed;strokeWidth=2;fillColor=#666666;fontColor=#333333;strokeColor=#666666;" vertex="1" parent="1">
          <mxGeometry x="349" y="625" width="10" height="10" as="geometry" />
        </mxCell>
        <mxCell id="xfyd0tg26X2Eod8Ik0Pi-64" style="edgeStyle=orthogonalEdgeStyle;rounded=0;orthogonalLoop=1;jettySize=auto;html=1;exitX=1;exitY=0.5;exitDx=0;exitDy=0;entryX=0;entryY=0.5;entryDx=0;entryDy=0;fontColor=#666666;endArrow=openThin;endFill=0;strokeWidth=2;strokeColor=#666666;" edge="1" parent="1" source="xfyd0tg26X2Eod8Ik0Pi-47" target="xfyd0tg26X2Eod8Ik0Pi-57">
          <mxGeometry relative="1" as="geometry" />
        </mxCell>
        <mxCell id="xfyd0tg26X2Eod8Ik0Pi-47" value="" style="ellipse;whiteSpace=wrap;html=1;aspect=fixed;strokeWidth=2;fillColor=#666666;fontColor=#333333;strokeColor=#666666;" vertex="1" parent="1">
          <mxGeometry x="350" y="675" width="10" height="10" as="geometry" />
        </mxCell>
        <mxCell id="xfyd0tg26X2Eod8Ik0Pi-54" value="" style="ellipse;whiteSpace=wrap;html=1;aspect=fixed;strokeWidth=2;fillColor=#666666;fontColor=#333333;strokeColor=#666666;" vertex="1" parent="1">
          <mxGeometry x="390" y="500" width="20" height="20" as="geometry" />
        </mxCell>
        <mxCell id="xfyd0tg26X2Eod8Ik0Pi-55" value="" style="ellipse;whiteSpace=wrap;html=1;aspect=fixed;strokeWidth=2;fillColor=#666666;fontColor=#333333;strokeColor=#666666;" vertex="1" parent="1">
          <mxGeometry x="390" y="550" width="20" height="20" as="geometry" />
        </mxCell>
        <mxCell id="xfyd0tg26X2Eod8Ik0Pi-56" value="" style="ellipse;whiteSpace=wrap;html=1;aspect=fixed;strokeWidth=2;fillColor=#666666;fontColor=#333333;strokeColor=#666666;" vertex="1" parent="1">
          <mxGeometry x="390" y="620" width="20" height="20" as="geometry" />
        </mxCell>
        <mxCell id="xfyd0tg26X2Eod8Ik0Pi-57" value="" style="ellipse;whiteSpace=wrap;html=1;aspect=fixed;strokeWidth=2;fillColor=#666666;fontColor=#333333;strokeColor=#666666;" vertex="1" parent="1">
          <mxGeometry x="390" y="670" width="20" height="20" as="geometry" />
        </mxCell>
        <mxCell id="xfyd0tg26X2Eod8Ik0Pi-58" value="" style="ellipse;whiteSpace=wrap;html=1;aspect=fixed;strokeWidth=2;fillColor=#666666;fontColor=#333333;strokeColor=#666666;" vertex="1" parent="1">
          <mxGeometry x="390" y="710" width="20" height="20" as="geometry" />
        </mxCell>
        <mxCell id="xfyd0tg26X2Eod8Ik0Pi-65" style="edgeStyle=orthogonalEdgeStyle;rounded=0;orthogonalLoop=1;jettySize=auto;html=1;exitX=1;exitY=0.5;exitDx=0;exitDy=0;entryX=0;entryY=0.5;entryDx=0;entryDy=0;fontColor=#666666;endArrow=openThin;endFill=0;strokeWidth=2;strokeColor=#666666;" edge="1" parent="1" source="xfyd0tg26X2Eod8Ik0Pi-59" target="xfyd0tg26X2Eod8Ik0Pi-58">
          <mxGeometry relative="1" as="geometry" />
        </mxCell>
        <mxCell id="xfyd0tg26X2Eod8Ik0Pi-59" value="" style="ellipse;whiteSpace=wrap;html=1;aspect=fixed;strokeWidth=2;fillColor=#666666;fontColor=#333333;strokeColor=#666666;" vertex="1" parent="1">
          <mxGeometry x="350" y="715" width="10" height="10" as="geometry" />
        </mxCell>
        <mxCell id="xfyd0tg26X2Eod8Ik0Pi-66" value="&lt;font style=&quot;font-size: 11px;&quot; color=&quot;#666666&quot;&gt;WX+b&lt;/font&gt;" style="text;html=1;align=center;verticalAlign=middle;resizable=0;points=[];autosize=1;strokeColor=none;fillColor=none;fontSize=11;fontFamily=Times New Roman;" vertex="1" parent="1">
          <mxGeometry x="326" y="475" width="50" height="30" as="geometry" />
        </mxCell>
        <mxCell id="xfyd0tg26X2Eod8Ik0Pi-67" value="&lt;font style=&quot;font-size: 11px;&quot; color=&quot;#666666&quot;&gt;g(WX+b)&lt;/font&gt;" style="text;html=1;align=center;verticalAlign=middle;resizable=0;points=[];autosize=1;strokeColor=none;fillColor=none;fontSize=11;fontFamily=Times New Roman;" vertex="1" parent="1">
          <mxGeometry x="375" y="470" width="70" height="30" as="geometry" />
        </mxCell>
        <mxCell id="xfyd0tg26X2Eod8Ik0Pi-69" style="rounded=0;orthogonalLoop=1;jettySize=auto;html=1;exitX=0;exitY=0;exitDx=60;exitDy=46.755;exitPerimeter=0;entryX=0;entryY=0.5;entryDx=0;entryDy=0;endArrow=none;endFill=0;strokeWidth=2;strokeColor=#CC0000;" edge="1" parent="1" source="xfyd0tg26X2Eod8Ik0Pi-68" target="xfyd0tg26X2Eod8Ik0Pi-9">
          <mxGeometry relative="1" as="geometry" />
        </mxCell>
        <mxCell id="xfyd0tg26X2Eod8Ik0Pi-70" style="rounded=0;orthogonalLoop=1;jettySize=auto;html=1;exitX=0;exitY=0;exitDx=60;exitDy=46.755;exitPerimeter=0;entryX=0;entryY=0.5;entryDx=0;entryDy=0;endArrow=none;endFill=0;strokeWidth=2;strokeColor=#CC0000;" edge="1" parent="1" source="xfyd0tg26X2Eod8Ik0Pi-68" target="xfyd0tg26X2Eod8Ik0Pi-15">
          <mxGeometry relative="1" as="geometry" />
        </mxCell>
        <mxCell id="xfyd0tg26X2Eod8Ik0Pi-71" style="rounded=0;orthogonalLoop=1;jettySize=auto;html=1;exitX=0;exitY=0;exitDx=60;exitDy=46.755;exitPerimeter=0;entryX=0;entryY=0.5;entryDx=0;entryDy=0;endArrow=none;endFill=0;strokeWidth=2;strokeColor=#CC0000;" edge="1" parent="1" source="xfyd0tg26X2Eod8Ik0Pi-68" target="xfyd0tg26X2Eod8Ik0Pi-20">
          <mxGeometry relative="1" as="geometry" />
        </mxCell>
        <mxCell id="xfyd0tg26X2Eod8Ik0Pi-72" style="rounded=0;orthogonalLoop=1;jettySize=auto;html=1;exitX=0;exitY=0;exitDx=60;exitDy=46.755;exitPerimeter=0;entryX=0;entryY=0.5;entryDx=0;entryDy=0;endArrow=none;endFill=0;strokeWidth=2;strokeColor=#CC0000;" edge="1" parent="1" source="xfyd0tg26X2Eod8Ik0Pi-68" target="xfyd0tg26X2Eod8Ik0Pi-25">
          <mxGeometry relative="1" as="geometry" />
        </mxCell>
        <mxCell id="xfyd0tg26X2Eod8Ik0Pi-73" style="rounded=0;orthogonalLoop=1;jettySize=auto;html=1;exitX=0;exitY=0;exitDx=60;exitDy=46.755;exitPerimeter=0;entryX=0;entryY=0.5;entryDx=0;entryDy=0;endArrow=none;endFill=0;strokeWidth=2;strokeColor=#CC0000;" edge="1" parent="1" source="xfyd0tg26X2Eod8Ik0Pi-68" target="xfyd0tg26X2Eod8Ik0Pi-28">
          <mxGeometry relative="1" as="geometry" />
        </mxCell>
        <mxCell id="xfyd0tg26X2Eod8Ik0Pi-68" value="&lt;div&gt;&lt;font face=&quot;Times New Roman&quot;&gt;Encrypted&lt;br&gt;&lt;/font&gt;&lt;/div&gt;&lt;div&gt;&lt;font face=&quot;Times New Roman&quot;&gt;Train&amp;nbsp;&lt;/font&gt;&lt;/div&gt;&lt;div&gt;&lt;font face=&quot;Times New Roman&quot;&gt;Data&lt;/font&gt;&lt;/div&gt;" style="shape=note;whiteSpace=wrap;html=1;backgroundOutline=1;darkOpacity=0.05;size=14;fontColor=#808080;" vertex="1" parent="1">
          <mxGeometry x="100" y="590.49" width="60" height="79.51" as="geometry" />
        </mxCell>
        <mxCell id="xfyd0tg26X2Eod8Ik0Pi-77" value="Input Layer" style="text;html=1;align=center;verticalAlign=middle;resizable=0;points=[];autosize=1;strokeColor=none;fillColor=none;fontColor=#666666;fontFamily=Times New Roman;" vertex="1" parent="1">
          <mxGeometry x="180" y="435" width="80" height="30" as="geometry" />
        </mxCell>
        <mxCell id="xfyd0tg26X2Eod8Ik0Pi-78" value="&lt;div&gt;First Hidden Layer&lt;/div&gt;" style="text;html=1;align=center;verticalAlign=middle;resizable=0;points=[];autosize=1;strokeColor=none;fillColor=none;fontColor=#666666;fontFamily=Times New Roman;" vertex="1" parent="1">
          <mxGeometry x="302.8" y="435" width="110" height="30" as="geometry" />
        </mxCell>
        <mxCell id="xfyd0tg26X2Eod8Ik0Pi-80" value="&lt;div&gt;attacked&amp;nbsp;&lt;/div&gt;&lt;div&gt;component&lt;/div&gt;" style="text;html=1;align=center;verticalAlign=middle;resizable=0;points=[];autosize=1;strokeColor=none;fillColor=none;fontFamily=Times New Roman;fontColor=#CC0000;" vertex="1" parent="1">
          <mxGeometry x="270" y="760" width="80" height="40" as="geometry" />
        </mxCell>
      </root>
    </mxGraphModel>
  </diagram>
</mxfile>
